<svg xmlns="http://www.w3.org/2000/svg" viewBox="0 0 512 512">
  <defs>
    <linearGradient id="bg" x1="0%" y1="0%" x2="100%" y2="100%">
      <stop offset="0%" style="stop-color:#818cf8"/>
      <stop offset="100%" style="stop-color:#6366f1"/>
    </linearGradient>
  </defs>
  <!-- Background -->
  <rect width="512" height="512" rx="96" fill="url(#bg)"/>
  <!-- Cloud shape representing "dreamy" -->
  <ellipse cx="256" cy="240" rx="120" ry="80" fill="white" opacity="0.9"/>
  <ellipse cx="180" cy="260" rx="70" ry="55" fill="white" opacity="0.9"/>
  <ellipse cx="330" cy="255" rx="65" ry="50" fill="white" opacity="0.9"/>
  <!-- Running figure silhouette -->
  <g fill="#6366f1" transform="translate(176, 200)">
    <!-- Head -->
    <circle cx="80" cy="20" r="18"/>
    <!-- Body -->
    <path d="M80 38 L75 80 L60 120 L45 155 M75 80 L90 120 L110 140 M80 55 L55 75 L30 65 M80 55 L105 70 L125 55"
          stroke="#6366f1" stroke-width="12" stroke-linecap="round" stroke-linejoin="round" fill="none"/>
  </g>
  <!-- Small stars/sparkles -->
  <circle cx="120" cy="120" r="8" fill="white" opacity="0.7"/>
  <circle cx="400" cy="100" r="6" fill="white" opacity="0.6"/>
  <circle cx="380" cy="380" r="10" fill="white" opacity="0.5"/>
  <circle cx="100" cy="350" r="7" fill="white" opacity="0.6"/>
</svg>
