<svg viewBox="0 0 432 84" xmlns="http://www.w3.org/2000/svg">
  <path fill="#FC4C02" d="M83.784 50.928l-16.72-32.856h-24.52l33.616 66.192L109.768 18.072H85.248l-1.464 32.856zM0 18.072l21.424 42.264h33.336L21.424 0 0 18.072zm175.464 33.744V18.072h-23.552v50.544h74.096V50.928h-50.544v.888zm157.896 16.8h-24.848l-18-25.424h-10.848v25.424h-23.552V18.072h47.104c13.848 0 22.464 8.616 22.464 21.424 0 10.032-5.472 17.16-13.8 19.92l21.48 30.312v-21zm-53.696-41.712h21.816c3.36 0 5.28-1.92 5.28-5.28s-1.92-5.28-5.28-5.28h-21.816v10.56zm113.424 41.712h-23.04l-4.464-10.848h-27.504l-4.464 10.848h-22.032l28.992-66.192h23.552l28.96 66.192zm-38.64-28.536l-7.2-17.688-7.224 17.688h14.424zM154.032 20.304c0-10.416-8.4-18.072-20.808-18.072-9.12 0-17.16 4.08-20.808 11.208l17.688 10.032c1.224-2.304 3.36-3.552 5.64-3.552 2.88 0 4.584 1.416 4.584 3.552 0 7.824-28.488 9.24-28.488 28.992 0 10.416 8.4 18.384 19.92 18.384 8.4 0 15.312-3.84 18.936-9.84l-16.8-9.72c-.912 1.92-2.88 3.24-4.584 3.24-2.304 0-3.84-1.2-3.84-3.24 0-7.824 28.56-9.552 28.56-28.992v.008z"/>
</svg>